<svg id="Layer_1" data-name="Layer 1" xmlns="http://www.w3.org/2000/svg" viewBox="0 0 797.79 828"><defs><style>.cls-1{fill:#e8470b;}.cls-2{fill:#fff;}</style></defs><title>antiopa</title><path class="cls-1" d="M35.16,34.1C30.23,25.25,34.49,18,44.62,18H819.38c10.13,0,14.39,7.25,9.46,16.1L441,839.36c-4.93,8.85-13,8.85-17.93,0Zm35.63-2.9a9.51,9.51,0,1,0,9.51,9.51A9.51,9.51,0,0,0,70.79,31.2Zm722.65,0A9.51,9.51,0,1,0,803,40.71,9.51,9.51,0,0,0,793.44,31.2Zm-139,210c2.66-4.76,9.79-7.52,10.06-17.41-2.93-33.48-43.64-31.91-60.14-27.12-35,14.89-144.62,65.18-154,98-1.5.35-2.81,4.83-3.81,9.81-2-6.87-5.06-12.22-8.7-15.1,3.62-3.71,6.06-10.5,6.08-18.29,0-9.29-3.4-17.18-8.18-20.12a125.19,125.19,0,0,1,9.08-24c3.19-6.16,7.48-11.79,13.39-15.52,4.22-2.66,8.77-3.15,13.14-.71a12.13,12.13,0,0,1,4,4.33c0,.25,0,.49,0,.74-3.47-4-11.18-5.33-13.27,2.28-3.51,12.78,24,12.73,19.22-2-5.05-15.66-21.83-12.57-31.07-3S436.43,236.58,433.52,250a7,7,0,0,0-1.82-.27,7.94,7.94,0,0,0-4.31,1.35c-2.9-13.05-7.42-26-15.61-36.47-7.48-9.53-26.75-15.81-31.85,0-4.65,14.37,18.44,18.13,18.84,4.32.17-6.06-8.66-7.82-12.51-4.89a7.83,7.83,0,0,0-.67.59,7.19,7.19,0,0,1,1.44-1.89c3.66-4.46,9.05-4.18,13.85-2.12,6.28,2.69,10.58,8.86,14,14.51,5,8.43,8.12,17.95,10.64,27.51-3.68,3.69-6.15,10.54-6.17,18.4s2.46,14.82,6.15,18.51c-3.56,2.91-6.55,8.2-8.54,14.94-1-4.74-2.21-8.88-3.65-9.23-9.23-32.89-118.6-83.68-153.56-98.72-16.48-4.87-57.17-6.62-60.26,26.83.23,9.89,7.33,12.69,10,17.48,6.58,7.84-17.2,27.88,5.15,42.6,10.57,10.5-4.59,21.72,14.25,30.83,10.31,19.3,22.15,17,32.1,18.4,0,0,19.08,3.33,26.06.2-7.28,4.86-46.75,20.66-37.4,55.54,2.31,18.74,12.24,8.94,18.56,32.87,3.69,19,16.72-.95,28.33,22,4.48,14.35,41.84,10.11,43.46,10.11,25-1.66,62.84-69.54,75.44-116.38,1.68,9.5,5.16,17.13,9.59,21-5.14,19.77-18.28,78.55,7.31,78.47,27-.06,11.85-49.63,6.68-79.07,4.23-4.11,7.55-11.65,9.16-20.94,12.4,46.89,49.93,114.9,74.89,116.65,1.61,0,39,4.42,43.52-9.9,11.7-22.85,24.66-2.85,28.41-21.82,6.44-23.9,16.34-14.06,18.72-32.78,9.53-34.84-29.89-50.82-37.15-55.71,7,3.16,26.06-.1,26.06-.1,10-1.32,21.78,1,32.2-18.24,18.86-9,3.76-20.31,14.38-30.78C671.57,269.13,647.87,249,654.49,241.16Z" transform="translate(-33.11 -18)"/><path class="cls-2" d="M373,539.94l-2.37,7.2h-3.06l7.79-22.91H379l7.82,22.91h-3.16l-2.45-7.2Zm7.53-2.32L378.3,531c-.5-1.5-.84-2.86-1.18-4.18H377c-.33,1.34-.69,2.74-1.14,4.14l-2.26,6.63Z" transform="translate(-33.11 -18)"/><path class="cls-2" d="M390.13,547.14V524.23h3.26l7.34,11.58a65.24,65.24,0,0,1,4.08,7.46l.08,0c-.27-3.06-.32-5.85-.32-9.4v-9.6h2.78v22.91h-3l-7.28-11.61a76.41,76.41,0,0,1-4.27-7.68l-.1,0c.18,2.9.22,5.66.22,9.45v9.8Z" transform="translate(-33.11 -18)"/><path class="cls-2" d="M416.88,526.73h-7v-2.5h17v2.5h-7v20.41h-3Z" transform="translate(-33.11 -18)"/><path class="cls-2" d="M432.38,524.23v22.91h-3V524.23Z" transform="translate(-33.11 -18)"/><path class="cls-2" d="M457.12,535.45c0,7.87-4.79,12.06-10.63,12.06-6.08,0-10.3-4.7-10.3-11.63,0-7.26,4.5-12,10.61-12S457.12,528.65,457.12,535.45Zm-17.8.37c0,4.9,2.66,9.29,7.33,9.29s7.34-4.32,7.34-9.53c0-4.56-2.38-9.32-7.3-9.32S439.32,530.8,439.32,535.82Z" transform="translate(-33.11 -18)"/><path class="cls-2" d="M461,524.5a33,33,0,0,1,5.7-.45c2.9,0,5.05.67,6.42,1.9a6.26,6.26,0,0,1,2,4.8,6.74,6.74,0,0,1-1.78,4.9c-1.58,1.68-4.12,2.51-7,2.51a9.71,9.71,0,0,1-2.39-.21v9.19h-3Zm3,11a9.1,9.1,0,0,0,2.45.26c3.59,0,5.76-1.76,5.76-4.89s-2.16-4.52-5.41-4.52a14.48,14.48,0,0,0-2.8.23Z" transform="translate(-33.11 -18)"/><path class="cls-2" d="M479.9,539.94l-2.36,7.2h-3.07l7.79-22.91h3.56l7.82,22.91h-3.16l-2.45-7.2Zm7.53-2.32L485.16,531c-.5-1.5-.84-2.86-1.18-4.18h-.08c-.33,1.34-.69,2.74-1.14,4.14l-2.26,6.63Z" transform="translate(-33.11 -18)"/><path class="cls-2" d="M412.39,597.48v-1.82l2.35-2.28c5.64-5.38,8.21-8.25,8.22-11.58,0-2.24-1.06-4.32-4.35-4.32a7.57,7.57,0,0,0-4.7,1.87l-1-2.1A9.74,9.74,0,0,1,419.2,575c4.76,0,6.75,3.26,6.75,6.41,0,4.1-2.95,7.4-7.61,11.86l-1.74,1.66V595h9.9v2.48Z" transform="translate(-33.11 -18)"/><path class="cls-2" d="M430.09,595.72a2,2,0,0,1,2-2.16,2.15,2.15,0,1,1-2,2.16Z" transform="translate(-33.11 -18)"/><path class="cls-2" d="M451.58,586.21c0,7.49-2.8,11.64-7.69,11.64-4.31,0-7.24-4-7.32-11.34s3.21-11.5,7.7-11.5C448.92,575,451.58,579.17,451.58,586.21Zm-12,.31c0,5.76,1.77,9,4.49,9,3.05,0,4.5-3.56,4.5-9.19,0-5.45-1.38-9-4.48-9C441.49,577.33,439.58,580.53,439.58,586.52Z" transform="translate(-33.11 -18)"/></svg>