<svg id="Ebene_1" data-name="Ebene 1" xmlns="http://www.w3.org/2000/svg" viewBox="0 0 618.02 913.65"><defs><style>.cls-1{fill:#707070;}.cls-2{fill:#e8470b;}.cls-3{font-size:120px;fill:#fff;font-family:Optima-Bold, Optima;font-weight:700;}</style></defs><title>docs</title><ellipse class="cls-1" cx="480.18" cy="610.02" rx="465.19" ry="296.09" transform="translate(-400.29 772.41) rotate(-75.78)"/><path class="cls-2" d="M597.69,665.29a18.08,18.08,0,0,0-3.15-4c-2.28-2-5-3.05-7.82-4.12H584.8v-.27H412.54v.27h-1.92c-3.44,1.29-6.29,2.59-8.91,5.21a14.65,14.65,0,0,0-4,7.82,26.33,26.33,0,0,0-.55,4,11.79,11.79,0,0,0,.28,2,9.87,9.87,0,0,0,.27,1.93,18.24,18.24,0,0,0,4.53,7.81,16.59,16.59,0,0,0,3.84,3c1.27.71,2.67,1.07,4,1.72h1.37v.27H585.9v-.27h1.37c3.32-1.67,6.52-2.66,8.91-5.76,3.41-4.41,5-10.23,3.16-15.78A15.52,15.52,0,0,0,597.69,665.29Z" transform="translate(-171.17 -153.2)"/><path class="cls-2" d="M402.39,618.66c2.29,2.29,5,3.4,8,4.53H412v.27H551.61v-.27h1.65c3.53-1.33,6.49-2.75,9-5.62a16.85,16.85,0,0,0,3.29-15.78,13.73,13.73,0,0,0-.55-2,20.26,20.26,0,0,0-1.1-1.92,17.07,17.07,0,0,0-3-3.84c-2.27-2.14-5.06-3.17-8-4.26h-1.64v-.27H412.27v.27h-1.65c-3.47,1.3-6.52,2.52-9.05,5.35a17.59,17.59,0,0,0-3.84,15.77A16.9,16.9,0,0,0,402.39,618.66Z" transform="translate(-171.17 -153.2)"/><path class="cls-2" d="M402.67,551.46c2.22,2.22,5.05,3.16,7.95,4.25h1.65V556H585.08v-.28h1.64c3.47-1.3,6.52-2.51,9-5.35a17.56,17.56,0,0,0,3.84-15.77,16.92,16.92,0,0,0-4.66-7.82c-2.29-2.29-5-3.4-8-4.52h-1.65V522H412v.28h-1.64c-3.54,1.32-6.49,2.75-9.05,5.62a17.23,17.23,0,0,0-3.43,15.77A17.44,17.44,0,0,0,402.67,551.46Z" transform="translate(-171.17 -153.2)"/><path class="cls-2" d="M667.64,724.82V488.23a38.35,38.35,0,0,0-.55-5.62,31.65,31.65,0,0,0-1.65-5.49,44.76,44.76,0,0,0-2.46-5.48,29.76,29.76,0,0,0-3.3-5.62c-1.23-1.55-2.21-3.38-3.42-4.94-1.38-1.76-2.84-3.29-4.26-5.08a115.17,115.17,0,0,0-8.77-9.87c-6.44-6.44-13-13.22-19.48-19.75s-13.29-13-19.89-19.61c-3.29-3.3-6.29-6.57-9.6-9.88l-5.07-5.07c-1.45-1.45-3.66-3-4.66-4.8h-.28c-1-1.69-3-3.16-4.39-4.53s-3.17-2.89-4.66-4.39a102.66,102.66,0,0,0-8.23-7.54c-2.77-2.21-5.33-4.69-8.23-6.72-2.69-1.89-5.38-3.65-8.23-5.35-2.62-1.57-5.5-2.48-8.23-3.84h-.82v-.27h-.82v-.28h-1.1v-.27h-1.37v-.28h-1.65v-.27H391.42v.27h-2.74v.28h-1.92v.27h-1.65v.28h-1.37v.27h-1.37c-3.43,1.28-7,2.1-10.42,3.43a62.28,62.28,0,0,0-18.11,11,68.26,68.26,0,0,0-8.91,8.92c-1.17,1.49-2.21,3-3.43,4.52-1.09,1.33-1.74,3.07-2.74,4.53v.27h-.28v.55h-.27c-.67,1.51-1.53,2.79-2.2,4.25-.31.68-.58,1.49-.82,2.2-.12.35-.43.74-.55,1.09a9.3,9.3,0,0,1-.27,1.1,26.34,26.34,0,0,0-1.65,4.53c-.1.35-.49.88-.55,1.23a3.37,3.37,0,0,1,0,.55c0,.08-.26.49-.27.55s.05.4,0,.55-.27.48-.28.55a3.25,3.25,0,0,1,0,.54s-.3.75-.27.55c-.06.4-.09.9-.14,1.24s-.23.8-.27,1.09c-.1.71-.33,1.51-.41,2.2a17.39,17.39,0,0,0-.28,2.33c0,.85-.27,1.38-.27,2.19,0,1.59-.28,2.83-.28,4.39V725.91c0,1.59.28,2.86.28,4.39a35.26,35.26,0,0,0,.55,4.53,23.39,23.39,0,0,0,.82,4.52c.49,1.47.67,3,1.1,4.53s1.14,3,1.64,4.53a31.94,31.94,0,0,0,1.79,4.52c.39.78.84,1.54,1.23,2.33.25.52.89,1.44.82,2.06h.28v.27h.27v.55h.28a2.44,2.44,0,0,0,.54,1.24c.27.41.55.84.83,1.23.57.83,1,1.78,1.64,2.61a39.85,39.85,0,0,0,3.84,4.93c2.85,2.85,5.59,6.17,8.78,8.78A76.71,76.71,0,0,0,363.3,783a67.81,67.81,0,0,0,8.92,4.41c2.94,1.22,6.07,1.94,9,3.06h1.37v.27h1.1v.28h1.37v.27h1.65v.28h1.92v.27h2.74v.28h214.5v-.28h2.74v-.27h1.92v-.28h1.65v-.27h1.37v-.28H615v-.27h1.1c3.36-1.26,6.84-2.14,10.15-3.52a72.36,72.36,0,0,0,9-4.57,82.28,82.28,0,0,0,8.92-6.65,54.46,54.46,0,0,0,8.36-8.71,45,45,0,0,0,3.43-4.53c.49-.81,1-1.53,1.51-2.33.28-.47,1.2-1.47,1.1-2.06h.27v-.55h.28v-.27h.27a11.59,11.59,0,0,1,1.37-3.15,25.48,25.48,0,0,0,1.37-3c.4-1.2,1-2.35,1.37-3.57.34-1,.76-2,1.1-3,.21-.64.33-1.28.55-1.92.1-.3.18-.53.27-.83,0-.11.28-.8.28-.82a18.71,18.71,0,0,1,.55-3,19.31,19.31,0,0,0,.55-3.29c.14-1,.39-2.27.54-3.29a13.67,13.67,0,0,0,0-1.92,7.53,7.53,0,0,1,.28-1.37A24.08,24.08,0,0,0,667.64,724.82ZM607,757.32v.27h-1.37v.28H604v.27H393.34v-.27h-1.65v-.28h-1.37v-.27H389c-1.48-.74-3.14-1.11-4.66-1.78a46.11,46.11,0,0,1-4.39-2.2,32.33,32.33,0,0,1-8.78-8,31.72,31.72,0,0,1-3.29-4.8c-.81-1.53-1.38-3.09-2.06-4.67a17.58,17.58,0,0,1-1.23-4.66c-.09-.69-.45-1.63-.55-2.33-.06-.4.05-.83,0-1.23s-.23-.75-.27-1.1c-.4-3,0-6.31,0-9.33V420.34A16.55,16.55,0,0,1,364,418c.05-.4-.06-.83,0-1.23s.21-.68.27-1.1c.13-.85.17-1.49.28-2.33a17.87,17.87,0,0,1,.82-2.47,13.29,13.29,0,0,1,.69-2.19c.78-1.52,1.3-3.19,2.19-4.67a51.8,51.8,0,0,1,3.29-4.66,32.77,32.77,0,0,1,9.19-7.68c2.94-1.76,6.13-2.64,9.33-3.84h1.37v-.27h1.92v-.28H420V387H520.62c2.25,1.12,4.22,1.89,6,3.7a14.22,14.22,0,0,1,3.29,5.76,35.63,35.63,0,0,1,1.65,6,18.47,18.47,0,0,1,.27,2.88c0,1.07.28,1.83.28,2.88,0,3.59.27,6.86.27,10.42v52.39a18.25,18.25,0,0,0,.55,5.35,16,16,0,0,0,2.74,5.21,18.64,18.64,0,0,0,4.94,4.53,33,33,0,0,0,5.21,2.05h1.65v.28h63.36v.27h3.57v.28h2.19v.27h1.92v.27h1.37c2.21.83,4.51,1.28,6.58,2.47,5,2.86,7.14,7.7,7.14,13V722.9a26.43,26.43,0,0,1,0,3.56,8.86,8.86,0,0,0-.28,1.65,5.61,5.61,0,0,1,0,.82c0,.23-.25.39-.27.55a22.6,22.6,0,0,1-.55,3.56l-1.1,3.3a30.15,30.15,0,0,1-9.32,13.44,38.92,38.92,0,0,1-6.86,4.8c-2.22,1.1-4.67,1.65-6.86,2.74Z" transform="translate(-171.17 -153.2)"/><text class="cls-3" transform="translate(124.37 816.64)">doc‘s</text></svg>